<svg xmlns="http://www.w3.org/2000/svg" width="512" height="512" viewBox="0 0 512 512" version="1.1">
	<path d="M 247.949 52.792 C 243.806 54.347, 67.209 154.765, 60.719 159.256 C 57.069 161.782, 52.214 170.387, 51.409 175.758 C 49.519 188.364, 58.660 201.214, 71.574 204.104 L 77 205.318 77 294.531 L 77 383.744 72.908 384.399 C 56.006 387.102, 46.323 405.952, 54.053 421.105 C 56.540 425.979, 63.953 432.370, 68.807 433.824 C 74.464 435.519, 437.536 435.519, 443.193 433.824 C 448.047 432.370, 455.460 425.979, 457.947 421.105 C 465.677 405.952, 455.994 387.102, 439.092 384.399 L 435 383.744 435 294.531 L 435 205.318 440.426 204.104 C 453.343 201.213, 462.352 188.632, 460.499 176.071 C 459.635 170.216, 455.404 162.398, 451.526 159.492 C 445.896 155.273, 267.785 54.006, 263.340 52.497 C 257.695 50.581, 253.632 50.658, 247.949 52.792 M 146.713 231.384 C 140.700 233.049, 135.365 237.304, 131.500 243.517 L 128.500 248.340 128.210 292.291 C 127.962 329.833, 128.146 336.923, 129.468 340.903 C 134.210 355.181, 150.738 362.123, 164.500 355.617 C 170.509 352.776, 174.184 349.043, 176.919 343 C 178.869 338.693, 178.957 336.613, 178.968 294.500 L 178.980 250.500 176.649 245.493 C 171.326 234.063, 158.637 228.083, 146.713 231.384 M 249.672 231.410 C 242.250 233.440, 236.971 237.705, 233.513 244.467 L 230.500 250.357 230.500 293.929 C 230.500 342.661, 230.452 342.268, 237.382 349.817 C 242.847 355.769, 247.850 357.956, 256 357.956 C 263.846 357.956, 268.998 355.809, 274.201 350.369 C 281.553 342.683, 281.464 343.299, 281.802 297.660 C 282.005 270.230, 281.736 255.046, 280.983 251.420 C 277.957 236.840, 263.531 227.621, 249.672 231.410 M 351.806 231.361 C 349.224 232.077, 346.299 233.278, 345.306 234.031 C 340.145 237.943, 337.523 240.973, 335.383 245.500 L 333.020 250.500 333.032 294.500 C 333.043 336.613, 333.131 338.693, 335.081 343 C 337.816 349.043, 341.491 352.776, 347.500 355.617 C 361.262 362.123, 377.790 355.181, 382.532 340.903 C 383.854 336.923, 384.038 329.841, 383.790 292.372 L 383.500 248.500 380.770 243.855 C 374.474 233.146, 363.085 228.233, 351.806 231.361" stroke="none" fill="black" fill-rule="evenodd"/>
</svg>